<?xml version="1.0" encoding="UTF-8"?>
<!DOCTYPE svg PUBLIC "-//W3C//DTD SVG 1.1//EN" "http://www.w3.org/Graphics/SVG/1.1/DTD/svg11.dtd">
<!-- Creator: CorelDRAW X7 -->
<svg xmlns="http://www.w3.org/2000/svg" xml:space="preserve" width="8.7126mm" height="12.1973mm" version="1.1" style="shape-rendering:geometricPrecision; text-rendering:geometricPrecision; image-rendering:optimizeQuality; fill-rule:evenodd; clip-rule:evenodd"
viewBox="0 0 17 23"
 xmlns:xlink="http://www.w3.org/1999/xlink">
 <defs>
  <style type="text/css">
   <![CDATA[
    .fil1 {fill:#FF0505;fill-opacity:0.231373}
    .fil0 {fill:#FF0505;fill-opacity:0.400000}
    .fil2 {fill:url(#id0)}
   ]]>
  </style>
  <linearGradient id="id0" gradientUnits="userSpaceOnUse" x1="8.29497" y1="19.5349" x2="10.6928" y2="-0.289174">
   <stop offset="0" style="stop-opacity:1; stop-color:#4BC1F0"/>
   <stop offset="0.329412" style="stop-opacity:1; stop-color:#FF0505"/>
   <stop offset="1" style="stop-opacity:1; stop-color:#E84041"/>
  </linearGradient>
 </defs>
 <g id="图层_x0020_1">
  <metadata id="CorelCorpID_0Corel-Layer"/>
  <path class="fil0" d="M8 17c5,0 9,1 9,3 0,2 -4,3 -9,3 -4,0 -8,-1 -8,-3 0,-2 4,-3 8,-3z"/>
  <path class="fil1" d="M8 17c4,0 7,1 7,3 0,1 -3,2 -7,2 -3,0 -6,-1 -6,-2 0,-2 3,-3 6,-3z"/>
  <path class="fil2" d="M15 0c0,0 -2,1 -2,4 0,0 -1,2 0,5 1,2 1,4 1,5 -1,1 -3,4 -6,5 0,0 -1,-1 -3,-3 -1,-2 -1,-4 -1,-4 0,0 0,-3 3,-6 0,0 0,4 1,7 0,0 -1,1 -1,2 1,1 4,0 3,-2 0,0 -2,-3 -2,-6 0,-3 2,-4 2,-4 0,0 1,-2 5,-3z"/>
 </g>
</svg>
