<?xml version="1.0" encoding="UTF-8"?>
<!DOCTYPE svg PUBLIC "-//W3C//DTD SVG 1.1//EN" "http://www.w3.org/Graphics/SVG/1.1/DTD/svg11.dtd">
<!-- Creator: CorelDRAW X7 -->
<svg xmlns="http://www.w3.org/2000/svg" xml:space="preserve" width="11.5556mm" height="11.5556mm" version="1.1" style="shape-rendering:geometricPrecision; text-rendering:geometricPrecision; image-rendering:optimizeQuality; fill-rule:evenodd; clip-rule:evenodd"
viewBox="0 0 22 22"
 xmlns:xlink="http://www.w3.org/1999/xlink">
 <defs>
  <style type="text/css">
   <![CDATA[
    .fil0 {fill:#4BC1F0}
    .fil1 {fill:#4BC1F0}
   ]]>
  </style>
 </defs>
 <g id="图层_x0020_1">
  <metadata id="CorelCorpID_0Corel-Layer"/>
  <path class="fil0" d="M4 0l-1 0c-2,0 -3,2 -3,3l0 15c0,0 0,2 1,3 1,1 2,1 2,1l16 0c0,0 1,0 2,-2 0,0 1,0 1,-1l0 -11c0,0 0,-1 -1,-2l-5 -5c0,0 -1,-1 -2,-1l-1 0 0 4c0,0 0,1 -1,1 0,0 -7,0 -7,0 0,0 -1,0 -1,-1 0,0 0,-4 0,-4zm0 10l13 0c1,0 1,0 1,1l0 6c0,1 0,1 -1,1l-13 0c0,0 0,0 0,-1l0 -6c0,-1 0,-1 0,-1z"/>
  <rect class="fil1" x="10" y="1" width="1.9748" height="2.8348" rx="1" ry="1"/>
  <rect class="fil1" x="6" y="12" width="9.28473" height="1.27406" rx="1" ry="1"/>
  <rect class="fil1" x="6" y="15" width="9.28473" height="1.27406" rx="1" ry="1"/>
 </g>
</svg>
